<svg width="81" height="33" viewBox="0 0 81 33" fill="none" xmlns="http://www.w3.org/2000/svg"><path fill-rule="evenodd" clip-rule="evenodd" d="M48.589 10.535c.484 0 .888.404.888.89V23.06a.897.897 0 0 1-.888.889c-.324 0-.566-.162-.728-.324l-4.606-4.606.727-.727c.162-.162.324-.242.485-.242.162 0 .324.08.485.161l.081.08L47.7 20.96v-9.455c0-.566.404-.97.889-.97zm-11.637 0c.485 0 .89.404.89.89v9.454l4.282-4.283c.161-.162.404-.242.646-.242.162 0 .404.08.566.161l.08.08.728.728c-.161.081-.323.243-.485.323l-.08.081-4.93 4.93-.97.97-.08.08a.734.734 0 0 1-.566.242.897.897 0 0 1-.889-.888V11.424c-.08-.485.323-.889.808-.889zm16.89 5.576a1.303 1.303 0 0 0-.243.727V23.06a.897.897 0 0 1-.89.89.897.897 0 0 1-.888-.89V17.89c0-.97.808-1.778 1.778-1.778h.242zm21.979.242h.08a3.794 3.794 0 0 1 3.799 3.798 3.794 3.794 0 0 1-3.798 3.799h-8.728a.897.897 0 0 1-.889-.89c0-.484.404-.888.89-.888h8.727c1.131 0 2.02-.89 2.02-1.94v-.161c-.08-1.617-.889-2.99-2.101-3.718zm2.99-5.818c.485 0 .889.404.889.89a.897.897 0 0 1-.89.888h-8.727c-1.13 0-2.02.889-2.02 1.94 0 1.13.89 2.02 1.94 2.02h3.555c1.374.08 2.586.889 3.152 2.02-.243-.162-.566-.162-.89-.242h-5.817a3.794 3.794 0 0 1-3.798-3.798c0-2.101 1.778-3.718 3.879-3.718h8.727zm-17.374 0c2.101 0 3.717 1.617 3.717 3.717 0 2.101-1.616 3.718-3.717 3.718h-7.273v-.89c0-.484.323-.807.808-.888H61.437c1.05 0 1.94-.889 1.94-1.94 0-1.05-.809-1.858-1.86-1.939H52.63a.897.897 0 0 1-.889-.889c0-.485.404-.889.889-.889h8.808z" fill="#3A3A3A"/><path fill-rule="evenodd" clip-rule="evenodd" d="M16.871 21.605l2.376-5.063 2.06 4.388 4.663-9.938a.45.45 0 0 0-.41-.643h-4.657l-2.282 4.86-2.375 5.063-.001-.002-2.866 6.104a2.375 2.375 0 0 1-4.33.134l-.06-.134L1.267 9.916a2.704 2.704 0 0 1 1.31-3.6c.361-.168.754-.255 1.152-.255h8.293c1.407 0 2.687.811 3.283 2.081l.314.67-2.377 5.058-1.408-3a.906.906 0 0 0-.821-.521h-4.08a.452.452 0 0 0-.41.643l4.663 9.938 2.684-5.72-.003-.009 2.377-5.058.002.004.94-2.005a3.625 3.625 0 0 1 3.284-2.081h8.293a2.713 2.713 0 0 1 2.718 2.708 2.7 2.7 0 0 1-.255 1.147l-7.723 16.458a2.377 2.377 0 0 1-4.333.135l-.06-.135-2.239-4.77z" fill="url(#a)"/><path fill-rule="evenodd" clip-rule="evenodd" d="M18.621 15.209l-2.375 5.063-.001-.002-2.866 6.104a2.375 2.375 0 0 1-4.33.134l-.06-.134-.89-1.896 2.496-4.809.591 1.261 2.684-5.72-.003-.009 2.377-5.058.002.004.94-2.005a3.625 3.625 0 0 1 3.284-2.081h4.173a2.72 2.72 0 0 0-2.452 1.537l-.057.126-3.513 7.485z" fill="url(#b)"/><path fill-rule="evenodd" clip-rule="evenodd" d="M28.456 6.06a2.91 2.91 0 0 1 2.634 4.146l-3.907 8.326-4.261-1.043 3.025-6.45a.485.485 0 0 0-.439-.69h-4.605l1.231-2.625a2.72 2.72 0 0 1 2.502-1.663h3.82z" fill="url(#c)" style="mix-blend-mode:multiply"/><defs><linearGradient id="a" x1="30.955" y1="27.823" x2="30.955" y2="6.793" gradientUnits="userSpaceOnUse"><stop offset=".001" stop-color="#FF5100"/><stop offset="1" stop-color="#FF1522"/></linearGradient><linearGradient id="b" x1="18.972" y1="26.453" x2="29.244" y2="13.913" gradientUnits="userSpaceOnUse"><stop stop-color="#FD7821" stop-opacity=".01"/><stop offset="1" stop-color="#FF7827"/></linearGradient><linearGradient id="c" x1="31.674" y1="16.242" x2="29.171" y2="4.187" gradientUnits="userSpaceOnUse"><stop stop-color="#FD7821" stop-opacity=".01"/><stop offset="1" stop-color="#881000" stop-opacity=".663"/><stop offset="1" stop-color="#881000" stop-opacity=".925"/></linearGradient></defs></svg>